<?xml version="1.0" standalone="no"?>
<!DOCTYPE svg PUBLIC "-//W3C//DTD SVG 20010904//EN"
 "http://www.w3.org/TR/2001/REC-SVG-20010904/DTD/svg10.dtd">
<svg version="1.0" xmlns="http://www.w3.org/2000/svg"
 width="1024.000000pt" height="1024.000000pt" viewBox="0 0 1024.000000 1024.000000"
 preserveAspectRatio="xMidYMid meet">
<metadata>
Created by potrace 1.11, written by Peter Selinger 2001-2013
</metadata>
<g transform="translate(0.000000,1024.000000) scale(0.100000,-0.100000)"
fill="#000000" stroke="none">
<path d="M6255 8039 c-67 -11 -157 -44 -214 -80 -25 -16 -668 -651 -1429
-1411 l-1382 -1382 -328 325 c-208 207 -344 335 -374 351 -122 67 -257 89
-388 64 -287 -54 -482 -333 -438 -625 12 -82 32 -134 84 -216 36 -59 1042
-1069 1125 -1130 174 -128 428 -132 614 -9 27 18 146 130 266 248 l216 216
1969 0 1969 0 44 23 c25 13 56 41 75 67 l31 45 0 1141 c0 987 -2 1145 -15
1170 -21 42 -77 90 -120 103 -26 8 -242 11 -715 11 l-678 0 99 100 c111 113
152 169 183 254 76 205 31 413 -123 571 -87 91 -174 138 -296 162 -42 8 -131
9 -175 2z"/>
<path d="M4248 4039 c-79 -23 -139 -60 -188 -116 -58 -66 -83 -124 -95 -215
l-6 -48 120 0 119 0 7 39 c8 46 43 97 82 118 62 34 201 20 242 -24 76 -82 44
-201 -95 -348 -98 -104 -383 -401 -426 -445 l-38 -38 0 -86 0 -86 420 0 420 0
0 115 0 115 -240 0 c-132 0 -240 3 -240 6 0 3 47 54 104 112 218 224 259 269
307 342 79 119 96 219 58 330 -22 63 -94 160 -119 160 -5 0 -10 4 -10 8 0 12
-84 50 -138 64 -76 18 -219 17 -284 -3z"/>
<path d="M5367 4054 c-1 -1 -17 -4 -35 -7 -106 -17 -253 -130 -319 -247 -36
-64 -72 -164 -81 -229 -13 -87 -6 -292 12 -361 53 -197 181 -348 346 -405 69
-24 197 -28 268 -9 199 53 359 250 390 479 8 65 9 215 1 285 -29 241 -207 449
-419 490 -47 9 -155 12 -163 4z m164 -244 c79 -42 141 -127 170 -233 15 -56
20 -222 7 -283 -21 -109 -83 -207 -155 -250 -89 -52 -197 -37 -273 37 -76 74
-111 173 -115 322 -5 196 57 337 178 402 47 25 145 28 188 5z"/>
<path d="M6354 4040 c-81 -22 -143 -59 -194 -117 -57 -65 -84 -125 -95 -215
l-7 -48 121 0 c90 0 121 3 122 13 6 100 69 159 175 163 113 4 176 -36 190
-122 12 -76 -21 -147 -116 -252 -56 -62 -438 -459 -462 -481 -15 -12 -18 -32
-18 -103 l0 -88 420 0 420 0 0 115 0 115 -240 0 c-132 0 -240 3 -240 7 0 3 45
52 99 107 270 275 334 353 369 450 44 122 8 269 -88 363 -98 96 -297 137 -456
93z"/>
<path d="M7479 4056 c-2 -2 -17 -6 -34 -9 -68 -10 -166 -66 -228 -129 -132
-132 -189 -294 -183 -518 4 -144 21 -221 74 -328 84 -172 232 -275 412 -289
141 -10 261 37 370 147 124 124 183 295 176 515 -2 66 -6 129 -9 140 -58 239
-172 383 -357 451 -40 14 -211 30 -221 20z m178 -257 c51 -31 75 -55 108 -113
80 -138 84 -369 10 -517 -47 -92 -141 -159 -225 -159 -48 0 -119 31 -159 70
-75 73 -117 191 -119 332 -2 249 123 427 290 414 36 -2 72 -13 95 -27z"/>
</g>
</svg>
